<svg width="900" height="900" viewBox="0 0 900 900" fill="none" xmlns="http://www.w3.org/2000/svg">
<path d="M898.5 1.5V898.5H1.5V1.5H898.5Z" fill="#313131" stroke="#060000" stroke-width="3"/>
<path d="M450.36 616.46C444.533 616.46 437.48 616.307 429.2 616C420.92 615.387 412.64 615.08 404.36 615.08C396.387 615.08 388.72 615.233 381.36 615.54C374 615.847 367.713 616 362.5 616C356.367 616 352.38 615.54 350.54 614.62C348.393 614.313 347.32 613.087 347.32 610.94C347.32 607.26 350.54 605.267 356.98 604.96L367.56 604.5C386.267 603.58 395.773 598.98 396.08 590.7C396.387 581.5 396.693 571.687 397 561.26C397.307 550.833 397.613 539.027 397.92 525.84C398.227 512.347 398.38 497.32 398.38 480.76C398.38 463.893 398.38 445.647 398.38 426.02V328.96C398.073 317.613 397.92 306.727 397.92 296.3C397.92 285.567 397.92 275.293 397.92 265.48C397.92 260.573 397.46 257.2 396.54 255.36C395.62 253.52 393.167 252.6 389.18 252.6H353.76C351.307 252.6 349.16 252.6 347.32 252.6C345.173 252.293 343.333 251.987 341.8 251.68C338.733 251.373 337.2 250.3 337.2 248.46C337.2 245.7 340.573 243.707 347.32 242.48C353.76 240.947 361.58 240.027 370.78 239.72C380.287 239.107 389.027 238.8 397 238.8C403.133 238.8 407.887 239.567 411.26 241.1C414.633 242.327 416.32 246.927 416.32 254.9C416.32 278.82 416.167 296.913 415.86 309.18C415.86 321.14 415.86 327.427 415.86 328.04C415.86 364.533 415.86 397.5 415.86 426.94C415.86 456.073 416.013 481.833 416.32 504.22C416.627 526.607 416.78 546.08 416.78 562.64C416.78 579.2 416.78 592.847 416.78 603.58H444.84C452.507 603.58 457.567 604.347 460.02 605.88C462.167 607.72 463.24 609.56 463.24 611.4C463.24 612.933 462.32 614.16 460.48 615.08C458.64 616 455.267 616.46 450.36 616.46ZM544.2 646.82C538.373 646.82 531.32 646.513 523.04 645.9C514.76 645.593 506.48 645.44 498.2 645.44C490.227 645.44 482.56 645.593 475.2 645.9C467.84 646.207 461.553 646.36 456.34 646.36C450.207 646.36 446.22 645.9 444.38 644.98C442.233 644.673 441.16 643.447 441.16 641.3C441.16 637.62 444.38 635.627 450.82 635.32L461.4 634.86C466.307 634.553 470.6 633.94 474.28 633.02C477.96 632.407 480.873 631.487 483.02 630.26C487.007 628.113 489.307 625.047 489.92 621.06C490.227 611.86 490.533 601.74 490.84 590.7C491.147 579.66 491.453 567.24 491.76 553.44C492.067 539.333 492.22 523.693 492.22 506.52C492.22 489.347 492.22 470.64 492.22 450.4V355.64C491.913 345.827 491.76 336.013 491.76 326.2C491.76 316.08 491.76 305.96 491.76 295.84C491.76 290.933 491.3 287.56 490.38 285.72C489.46 283.88 487.007 282.96 483.02 282.96H459.56C457.107 282.96 454.807 282.96 452.66 282.96C450.82 282.653 449.133 282.347 447.6 282.04C444.533 281.733 443 280.66 443 278.82C443 276.06 445.607 274.067 450.82 272.84C456.033 271.307 462.32 270.387 469.68 270.08C477.347 269.467 484.553 269.16 491.3 269.16C497.433 269.16 502.033 269.927 505.1 271.46C508.473 272.687 510.16 277.287 510.16 285.26C509.853 296.913 509.7 306.88 509.7 315.16C509.7 323.44 509.7 329.88 509.7 334.48V348.74C509.7 385.847 509.7 419.58 509.7 449.94C509.7 480.3 509.853 507.593 510.16 531.82C510.467 556.047 510.62 576.747 510.62 593.92C510.62 610.787 510.62 624.127 510.62 633.94H538.68C546.347 633.94 551.407 634.707 553.86 636.24C556.007 638.08 557.08 639.92 557.08 641.76C557.08 643.293 556.16 644.52 554.32 645.44C552.48 646.36 549.107 646.82 544.2 646.82Z" fill="white"/>
</svg>
